<svg data-v-423bf9ae="" xmlns="http://www.w3.org/2000/svg" viewBox="0 0 122.41893601037492 60" class="font"><!----><!----><defs data-v-423bf9ae=""><linearGradient data-v-423bf9ae="" gradientTransform="rotate(25)" id="f6e68507-47c1-4f30-82c8-37f1eca05712" x1="0%" y1="0%" x2="100%" y2="0%"><stop data-v-423bf9ae="" offset="0%" style="stop-color: rgb(0, 125, 232); stop-opacity: 1;"></stop><stop data-v-423bf9ae="" offset="100%" style="stop-color: rgb(161, 195, 219); stop-opacity: 1;"></stop></linearGradient></defs><g data-v-423bf9ae="" id="b6dd57ef-6aa8-4737-bd01-8bbfa0fc5b5d" fill="url(#f6e68507-47c1-4f30-82c8-37f1eca05712)" transform="matrix(5.258545206169178,0,0,5.258545206169178,2.208589016648098,-17.984225006293755)"><path d="M3.23 9.52L4.54 9.55L4.54 9.55Q5.22 6.45 5.22 4.90L5.22 4.90L5.22 4.54L5.22 4.54Q5.22 4.30 5.34 4.18L5.34 4.18L5.34 4.18Q5.46 4.06 5.59 4.04L5.59 4.04L5.59 4.04Q5.73 4.02 6.13 4.02L6.13 4.02L6.13 4.02Q6.52 4.02 6.96 4.31L6.96 4.31L6.96 4.31Q7.41 4.61 7.41 5.11L7.41 5.11L7.41 5.11Q7.41 5.21 7.28 6.33L7.28 6.33L7.28 6.33Q7.15 7.45 7.11 9.20L7.11 9.20L7.11 9.20Q7.59 9.00 7.88 8.79L7.88 8.79L7.88 8.79Q8.16 8.57 8.26 8.57L8.26 8.57L8.26 8.57Q8.41 8.57 8.41 8.86L8.41 8.86L8.41 8.86Q8.41 9.14 7.98 9.58L7.98 9.58L7.98 9.58Q7.55 10.02 7.11 10.30L7.11 10.30L7.11 10.30Q7.11 10.61 7.14 11.28L7.14 11.28L7.14 11.28Q7.18 11.26 7.26 11.26L7.26 11.26L7.26 11.26Q7.34 11.26 7.41 11.30L7.41 11.30L7.41 11.30Q7.49 11.34 7.55 11.40L7.55 11.40L7.55 11.40Q7.62 11.45 7.70 11.56L7.70 11.56L7.70 11.56Q7.78 11.66 7.83 11.72L7.83 11.72L7.83 11.72Q7.87 11.77 7.94 11.88L7.94 11.88L7.94 11.88Q8.01 11.98 8.02 12.00L8.02 12.00L8.02 12.00Q8.27 12.38 8.27 12.59L8.27 12.59L8.27 12.59Q8.27 12.81 8.19 13.09L8.19 13.09L8.19 13.09Q7.87 13.92 7.76 14.53L7.76 14.53L7.76 14.53Q7.70 14.83 7.42 14.83L7.42 14.83L7.42 14.83Q7.11 14.83 6.99 14.66L6.99 14.66L6.99 14.66Q6.87 14.50 6.81 14.41L6.81 14.41L6.81 14.41Q6.75 14.31 6.70 14.13L6.70 14.13L6.70 14.13Q6.65 13.94 6.62 13.84L6.62 13.84L6.62 13.84Q6.59 13.73 6.57 13.51L6.57 13.51L6.57 13.51Q6.52 13.22 6.51 12.92L6.51 12.92L6.50 12.70L6.50 12.70Q6.44 12.03 6.36 10.65L6.36 10.65L6.36 10.65Q5.99 10.78 5.24 10.81L5.24 10.81L5.24 10.81Q5.01 11.82 4.78 12.66L4.78 12.66L4.78 12.66Q4.55 13.51 4.03 14.01L4.03 14.01L4.03 14.01Q3.50 14.52 2.74 14.52L2.74 14.52L2.74 14.52Q2.52 14.52 2.21 14.45L2.21 14.45L2.21 14.45Q0.41 13.96-0.25 12.17L-0.25 12.17L-0.25 12.17Q-0.42 11.70-0.42 11.35L-0.42 11.35L-0.42 11.35Q-0.42 10.51 0.28 10.21L0.28 10.21L0.28 10.21Q1.79 9.52 3.23 9.52L3.23 9.52ZM6.30 9.41L6.30 9.41L6.30 9.41Q6.24 8.18 6.19 5.66L6.19 5.66L6.19 5.66Q6.08 6.30 5.84 7.59L5.84 7.59L5.84 7.59Q5.61 8.88 5.50 9.52L5.50 9.52L5.50 9.52Q6.03 9.46 6.30 9.41ZM4.21 10.82L4.21 10.82L3.32 10.82L3.32 10.82Q1.61 10.82 0.59 11.06L0.59 11.06L0.59 11.06Q0.01 11.17 0.01 11.48L0.01 11.48L0.01 11.48Q0.01 11.72 0.39 12.10L0.39 12.10L0.39 12.10Q0.77 12.47 1.37 12.68L1.37 12.68L1.37 12.68Q1.97 12.88 2.38 12.88L2.38 12.88L2.38 12.88Q2.79 12.88 3.06 12.74L3.06 12.74L3.06 12.74Q3.33 12.60 3.49 12.45L3.49 12.45L3.49 12.45Q3.65 12.29 3.81 11.94L3.81 11.94L3.81 11.94Q4.00 11.51 4.21 10.82ZM8.53 4.26L8.53 4.26L8.86 4.31L8.86 4.31Q9.02 4.31 9.30 4.23L9.30 4.23L9.30 4.23Q10.81 3.75 11.65 3.75L11.65 3.75L11.65 3.75Q12.50 3.75 13.19 4.01L13.19 4.01L13.19 4.01Q13.87 4.27 14.36 4.83L14.36 4.83L14.36 4.83Q14.85 5.39 14.85 6.03L14.85 6.03L14.85 6.03Q14.85 6.68 14.59 7.19L14.59 7.19L14.59 7.19Q14.34 7.70 13.87 8.11L13.87 8.11L13.87 8.11Q13.06 8.79 11.98 9.32L11.98 9.32L11.98 9.32Q12.91 9.81 12.91 11.05L12.91 11.05L12.89 11.65L12.89 11.65Q12.89 12.61 13.40 12.61L13.40 12.61L13.40 12.61Q13.92 12.61 14.46 12.17L14.46 12.17L14.46 12.17Q14.64 12.03 14.69 12.03L14.69 12.03L14.69 12.03Q14.80 12.03 14.80 12.19L14.80 12.19L14.80 12.19Q14.80 12.68 14.18 13.50L14.18 13.50L14.18 13.50Q13.82 13.93 13.36 13.93L13.36 13.93L13.36 13.93Q12.73 13.93 12.31 13.24L12.31 13.24L12.31 13.24Q11.90 12.56 11.90 11.89L11.90 11.89L11.93 11.14L11.93 11.14Q11.93 10.21 11.63 9.95L11.63 9.95L11.63 9.95Q11.48 9.83 11.23 9.70L11.23 9.70L10.78 9.91L10.78 9.91Q10.60 11.27 10.60 12.10L10.60 12.10L10.61 13.31L10.61 13.31Q10.61 13.83 10.32 13.83L10.32 13.83L10.32 13.83Q10.21 13.83 9.98 13.71L9.98 13.71L9.98 13.71Q9.09 13.15 8.78 11.69L8.78 11.69L8.78 11.69Q8.76 11.62 8.76 11.58L8.76 11.58L8.76 11.58Q8.76 11.45 8.97 11.45L8.97 11.45L8.97 11.45Q9.17 11.45 9.32 11.57L9.32 11.57L9.32 11.57Q9.46 11.69 9.53 11.81L9.53 11.81L9.53 11.81Q9.60 11.93 9.65 11.93L9.65 11.93L9.65 11.93Q9.77 11.93 9.77 11.69L9.77 11.69L9.72 11.03L9.72 11.03Q9.76 8.86 10.07 6.54L10.07 6.54L10.07 6.54Q10.16 5.92 10.21 5.75L10.21 5.75L10.21 5.75Q10.25 5.59 10.25 5.51L10.25 5.51L10.25 5.51Q10.25 5.43 10.23 5.39L10.23 5.39L10.23 5.39Q9.69 5.54 9.47 5.76L9.47 5.76L9.47 5.76Q9.25 5.98 9.09 5.98L9.09 5.98L9.09 5.98Q8.93 5.98 8.84 5.95L8.84 5.95L8.84 5.95Q8.75 5.92 8.67 5.83L8.67 5.83L8.67 5.83Q8.60 5.74 8.55 5.70L8.55 5.70L8.55 5.70Q8.27 5.29 8.27 4.98L8.27 4.98L8.27 4.98Q8.27 4.26 8.53 4.26ZM13.73 5.81L13.73 5.81L13.73 5.81Q13.73 5.46 13.11 5.30L13.11 5.30L13.11 5.30Q12.49 5.14 12.02 5.14L12.02 5.14L12.02 5.14Q11.55 5.14 11.20 5.19L11.20 5.19L11.20 5.19Q11.16 5.36 11.16 6.15L11.16 6.15L11.16 6.15Q11.16 6.94 10.99 8.36L10.99 8.36L10.99 8.36Q12.67 7.73 13.65 6.09L13.65 6.09L13.65 6.09Q13.73 5.92 13.73 5.81ZM17.79 5.00L17.79 5.00L17.79 5.00Q17.79 5.07 17.79 5.14L17.79 5.14L17.79 5.32L17.79 5.32Q17.79 6.08 17.14 6.84L17.14 6.84L17.14 6.84Q16.49 7.60 15.71 8.11L15.71 8.11L15.71 8.11Q15.51 8.22 15.39 8.22L15.39 8.22L15.39 8.22Q15.15 8.22 15.00 7.86L15.00 7.86L15.00 7.86Q14.85 7.50 14.85 7.26L14.85 7.26L14.85 7.26Q14.85 7.01 15.04 6.76L15.04 6.76L15.04 6.76Q16.24 5.17 17.68 4.19L17.68 4.19L17.68 4.19Q17.96 3.99 18.32 3.99L18.32 3.99L18.32 3.99Q18.68 3.99 19.10 4.21L19.10 4.21L19.10 4.21Q19.68 4.52 19.68 5.39L19.68 5.39L19.68 5.39Q19.68 5.81 19.49 6.42L19.49 6.42L19.49 6.42Q19.31 7.03 19.14 7.51L19.14 7.51L19.14 7.51Q18.98 7.99 18.96 8.09L18.96 8.09L18.96 8.09Q19.63 7.46 20.55 6.01L20.55 6.01L20.55 6.01Q20.90 5.45 21.04 5.24L21.04 5.24L21.04 5.24Q21.77 4.09 21.92 3.77L21.92 3.77L21.92 3.77Q21.92 3.42 22.13 3.42L22.13 3.42L22.13 3.42Q22.27 3.42 22.46 3.59L22.46 3.59L22.46 3.59Q22.65 3.77 22.76 3.85L22.76 3.85L22.76 3.85Q22.86 3.93 22.86 4.03L22.86 4.03L22.86 4.03Q22.86 4.13 22.78 4.27L22.78 4.27L22.78 4.27Q21.73 6.65 19.32 9.20L19.32 9.20L19.32 9.20Q19.29 9.23 19.29 9.27L19.29 9.27L19.29 9.27Q19.29 9.48 19.77 9.48L19.77 9.48L19.77 9.48Q20.45 9.66 20.85 10.53L20.85 10.53L20.85 10.53Q20.90 10.64 21.13 11.21L21.13 11.21L21.13 11.21Q21.36 11.77 21.50 12.07L21.50 12.07L21.50 12.07Q21.64 12.40 21.85 12.40L21.85 12.40L21.85 12.40Q21.94 12.40 22.05 12.33L22.05 12.33L22.05 12.33Q22.16 12.26 22.20 12.26L22.20 12.26L22.20 12.26Q22.41 12.26 22.41 12.79L22.41 12.79L22.41 12.79Q22.41 13.31 22.34 13.50L22.34 13.50L22.34 13.50Q22.27 13.69 21.92 13.96L21.92 13.96L21.92 13.96Q21.56 14.22 21.33 14.22L21.33 14.22L21.33 14.22Q21.10 14.22 20.69 13.74L20.69 13.74L20.69 13.74Q20.29 13.26 19.88 12.05L19.88 12.05L19.88 12.05Q19.47 10.85 19.35 10.58L19.35 10.58L19.35 10.58Q19.19 10.22 18.98 10.22L18.98 10.22L18.98 10.22Q18.76 10.22 18.61 10.46L18.61 10.46L18.61 10.46Q18.47 10.71 18.24 10.70L18.24 10.70L18.24 10.70Q18.03 11.68 18.03 12.27L18.03 12.27L18.03 12.27Q18.03 12.87 18.07 13.12L18.07 13.12L18.07 13.12Q18.12 13.37 18.12 13.51L18.12 13.51L18.12 13.51Q18.12 13.65 17.92 13.83L17.92 13.83L17.92 13.83Q17.72 14.01 17.54 14.01L17.54 14.01L17.54 14.01Q17.35 14.01 17.07 13.71L17.07 13.71L17.07 13.71Q16.88 13.52 16.87 13.38L16.87 13.38L16.87 13.38Q16.84 13.12 16.81 12.68L16.81 12.68L16.81 12.68Q16.79 12.25 16.79 11.93L16.79 11.93L16.79 11.93Q16.79 10.85 17.03 9.77L17.03 9.77L17.03 9.77Q17.28 8.69 17.72 7.34L17.72 7.34L17.72 7.34Q18.38 5.35 18.38 5.07L18.38 5.07L18.38 5.07Q18.38 4.79 18.13 4.79L18.13 4.79L18.13 4.79Q17.82 4.79 17.79 5.00Z"></path></g><!----><!----></svg>